# xmcd CD database file
#
# Track frame offsets:
#	150
#	25166
#	47452
#	69165
#	87266
#	103766
#	119718
#	136455
#	156121
#	174848
#	196283
#	216855
#
# Disc length: 3081 seconds
#
# Revision: 0
# Processed by: cddbd v1.5.2PL0 Copyright (c) Steve Scherf et al.
# Submitted via: CDex 1.70beta2
#
DISCID=9f0c070c
DTITLE=Nozomi Yamaguchi - jazzin' R&B 90's selection
DYEAR=2011
DGENRE=Jazz
TTITLE0=Can We Talk
TTITLE1=Can’t Take My Eyes Off of You
TTITLE2=No Diggity
TTITLE3=Before You Walk Out of My Life
TTITLE4=Real Love
TTITLE5=Baby Baby Baby
TTITLE6=Brown Sugar
TTITLE7=U Know What’s Up
TTITLE8=Got ‘Til It’s Gone
TTITLE9=Dream Come True
TTITLE10=This is How We Do it
TTITLE11=The Boy is Mine
EXTD=YEAR: 2011
EXTT0=
EXTT1=
EXTT2=
EXTT3=
EXTT4=
EXTT5=
EXTT6=
EXTT7=
EXTT8=
EXTT9=
EXTT10=
EXTT11=
PLAYORDER=
